<?xml version="1.0" encoding="UTF-8" standalone="no"?>
<!DOCTYPE svg PUBLIC "-//W3C//DTD SVG 1.1//EN"
 "http://www.w3.org/Graphics/SVG/1.1/DTD/svg11.dtd">
<!-- Generated by graphviz version 2.36.0 (20140111.2315)
 -->
<!-- Title: %3 Pages: 1 -->
<svg width="1347pt" height="3118pt"
 viewBox="0.00 0.00 1347.00 3118.00" xmlns="http://www.w3.org/2000/svg" xmlns:xlink="http://www.w3.org/1999/xlink">
<g id="graph0" class="graph" transform="scale(1 1) rotate(0) translate(4 3114)">
<title>%3</title>
<polygon fill="white" stroke="none" points="-4,4 -4,-3114 1343,-3114 1343,4 -4,4"/>
<!-- unhappy -->
<g id="node1" class="node"><title>unhappy</title>
<path fill="none" stroke="black" d="M407,-3110C407,-3110 295,-3110 295,-3110 289,-3110 283,-3104 283,-3098 283,-3098 283,-3086 283,-3086 283,-3080 289,-3074 295,-3074 295,-3074 407,-3074 407,-3074 413,-3074 419,-3080 419,-3086 419,-3086 419,-3098 419,-3098 419,-3104 413,-3110 407,-3110"/>
<text text-anchor="middle" x="351" y="-3088.3" font-family="Times,serif" font-size="14.00">React огорчает тебя.</text>
</g>
<!-- are_you_using_react_boilerplates -->
<g id="node2" class="node"><title>are_you_using_react_boilerplates</title>
<polygon fill="none" stroke="black" points="351,-3036 143,-2998 351,-2960 559,-2998 351,-3036"/>
<text text-anchor="middle" x="351" y="-3001.8" font-family="Times,serif" font-size="14.00">Ты изучаешь React,</text>
<text text-anchor="middle" x="351" y="-2986.8" font-family="Times,serif" font-size="14.00"> &#160;&#160;&#160;копируя шаблонные проекты?</text>
</g>
<!-- unhappy&#45;&gt;are_you_using_react_boilerplates -->
<g id="edge1" class="edge"><title>unhappy&#45;&gt;are_you_using_react_boilerplates</title>
<path fill="none" stroke="black" d="M351,-3073.7C351,-3065.81 351,-3056.06 351,-3046.24"/>
<polygon fill="black" stroke="black" points="354.5,-3046.04 351,-3036.04 347.5,-3046.04 354.5,-3046.04"/>
</g>
<!-- boilerplates_dont_teach -->
<g id="node3" class="node"><title>boilerplates_dont_teach</title>
<polygon fill="none" stroke="black" points="342,-2907.5 0,-2907.5 0,-2644.5 342,-2644.5 342,-2907.5"/>
<text text-anchor="middle" x="171" y="-2892.3" font-family="Times,serif" font-size="14.00">Изучение React с помощью копирования</text>
<text text-anchor="middle" x="171" y="-2877.3" font-family="Times,serif" font-size="14.00"> &#160;&#160;&#160;шаблонных проектов похоже на попытку научиться</text>
<text text-anchor="middle" x="171" y="-2862.3" font-family="Times,serif" font-size="14.00"> &#160;&#160;&#160;готовить, обедая в модных ресторанах. Это</text>
<text text-anchor="middle" x="171" y="-2847.3" font-family="Times,serif" font-size="14.00"> &#160;&#160;&#160;так не работает. Тебе нужно начать с основ и</text>
<text text-anchor="middle" x="171" y="-2832.3" font-family="Times,serif" font-size="14.00"> &#160;&#160;&#160;не обращать внимания на страх упустить что&#45;то.</text>
<text text-anchor="middle" x="171" y="-2817.3" font-family="Times,serif" font-size="14.00"> &#160;&#160;&#160;Это необосновано. Люди создают шаблоны, чтобы</text>
<text text-anchor="middle" x="171" y="-2802.3" font-family="Times,serif" font-size="14.00"> &#160;&#160;&#160;показать, что они сделали или изучили, а не</text>
<text text-anchor="middle" x="171" y="-2787.3" font-family="Times,serif" font-size="14.00"> &#160;&#160;&#160;чтобы помочь тебе учиться. Они созданы опытными</text>
<text text-anchor="middle" x="171" y="-2772.3" font-family="Times,serif" font-size="14.00"> &#160;&#160;&#160;пользователями и для опытных пользователей, и</text>
<text text-anchor="middle" x="171" y="-2757.3" font-family="Times,serif" font-size="14.00"> &#160;&#160;&#160;часто они более экспериментальны, чем кажется</text>
<text text-anchor="middle" x="171" y="-2742.3" font-family="Times,serif" font-size="14.00"> &#160;&#160;&#160;на первый взгляд. Шаблоны конкурируют за</text>
<text text-anchor="middle" x="171" y="-2727.3" font-family="Times,serif" font-size="14.00"> &#160;&#160;&#160;внимание, что приводит к увеличению их размеров.</text>
<text text-anchor="middle" x="171" y="-2712.3" font-family="Times,serif" font-size="14.00"> &#160;&#160;&#160;Если ты хочешь изучить React, лучше начни по</text>
<text text-anchor="middle" x="171" y="-2697.3" font-family="Times,serif" font-size="14.00"> &#160;&#160;&#160;порядку, описанному Питом Хантом в его статье:</text>
<text text-anchor="middle" x="171" y="-2682.3" font-family="Times,serif" font-size="14.00"> &#160;&#160;&#160;https://github.com/petehunt/react&#45;howto.</text>
<text text-anchor="middle" x="171" y="-2667.3" font-family="Times,serif" font-size="14.00"> &#160;&#160;&#160;Обращайся к шаблонам не раньше, чем сможешь</text>
<text text-anchor="middle" x="171" y="-2652.3" font-family="Times,serif" font-size="14.00"> &#160;&#160;&#160;создавать их сам.</text>
</g>
<!-- are_you_using_react_boilerplates&#45;&gt;boilerplates_dont_teach -->
<g id="edge2" class="edge"><title>are_you_using_react_boilerplates&#45;&gt;boilerplates_dont_teach</title>
<path fill="none" stroke="black" d="M324.44,-2964.54C313.231,-2950.84 299.35,-2933.87 284.555,-2915.79"/>
<polygon fill="black" stroke="black" points="287.205,-2913.5 278.164,-2907.98 281.788,-2917.93 287.205,-2913.5"/>
<text text-anchor="middle" x="310" y="-2930.3" font-family="Times,serif" font-size="14.00">да</text>
</g>
<!-- steal_from_boilerplates -->
<g id="node4" class="node"><title>steal_from_boilerplates</title>
<polygon fill="none" stroke="black" points="703.25,-2870 360.75,-2870 360.75,-2682 703.25,-2682 703.25,-2870"/>
<text text-anchor="middle" x="532" y="-2854.8" font-family="Times,serif" font-size="14.00">Хотя шаблоны и не являются хорошим</text>
<text text-anchor="middle" x="532" y="-2839.8" font-family="Times,serif" font-size="14.00"> &#160;&#160;&#160;способом изучать использованные в них технологии,</text>
<text text-anchor="middle" x="532" y="-2824.8" font-family="Times,serif" font-size="14.00"> &#160;&#160;&#160;они достаточно полезны, чтобы увидеть, как</text>
<text text-anchor="middle" x="532" y="-2809.8" font-family="Times,serif" font-size="14.00"> &#160;&#160;&#160;эти технологии могут быть совмещены *после*</text>
<text text-anchor="middle" x="532" y="-2794.8" font-family="Times,serif" font-size="14.00"> &#160;&#160;&#160;того, как тебе стало комфортно с каждой из</text>
<text text-anchor="middle" x="532" y="-2779.8" font-family="Times,serif" font-size="14.00"> &#160;&#160;&#160;них в отдельности. И это отличный способ открыть</text>
<text text-anchor="middle" x="532" y="-2764.8" font-family="Times,serif" font-size="14.00"> &#160;&#160;&#160;для себя новые технологии, но ты не должен</text>
<text text-anchor="middle" x="532" y="-2749.8" font-family="Times,serif" font-size="14.00"> &#160;&#160;&#160;чувствовать себя обязанным их использовать.</text>
<text text-anchor="middle" x="532" y="-2734.8" font-family="Times,serif" font-size="14.00"> &#160;&#160;&#160;Не отказывайся полностью от шаблонов.</text>
<text text-anchor="middle" x="532" y="-2719.8" font-family="Times,serif" font-size="14.00"> &#160;&#160;&#160;Просто помни, что шаблон — это волшебный</text>
<text text-anchor="middle" x="532" y="-2704.8" font-family="Times,serif" font-size="14.00"> &#160;&#160;&#160;мешок, а не прочная основа для твоего</text>
<text text-anchor="middle" x="532" y="-2689.8" font-family="Times,serif" font-size="14.00"> &#160;&#160;&#160;приложения.</text>
</g>
<!-- are_you_using_react_boilerplates&#45;&gt;steal_from_boilerplates -->
<g id="edge3" class="edge"><title>are_you_using_react_boilerplates&#45;&gt;steal_from_boilerplates</title>
<path fill="none" stroke="black" d="M377.707,-2964.54C396.654,-2941.51 423.19,-2909.25 448.921,-2877.98"/>
<polygon fill="black" stroke="black" points="451.79,-2880 455.441,-2870.06 446.384,-2875.55 451.79,-2880"/>
<text text-anchor="middle" x="415" y="-2930.3" font-family="Times,serif" font-size="14.00">нет</text>
</g>
<!-- are_you_using_flux -->
<g id="node5" class="node"><title>are_you_using_flux</title>
<polygon fill="none" stroke="black" points="393,-2606 265,-2553 393,-2500 521,-2553 393,-2606"/>
<text text-anchor="middle" x="393" y="-2564.3" font-family="Times,serif" font-size="14.00">Ты используешь</text>
<text text-anchor="middle" x="393" y="-2549.3" font-family="Times,serif" font-size="14.00"> &#160;&#160;&#160;библиотеку Flux</text>
<text text-anchor="middle" x="393" y="-2534.3" font-family="Times,serif" font-size="14.00"> &#160;&#160;&#160;(или Redux)?</text>
</g>
<!-- boilerplates_dont_teach&#45;&gt;are_you_using_flux -->
<g id="edge4" class="edge"><title>boilerplates_dont_teach&#45;&gt;are_you_using_flux</title>
<path fill="none" stroke="black" d="M302.384,-2644.21C318.814,-2627.85 334.628,-2612.11 348.317,-2598.48"/>
<polygon fill="black" stroke="black" points="351.076,-2600.67 355.694,-2591.14 346.137,-2595.71 351.076,-2600.67"/>
</g>
<!-- steal_from_boilerplates&#45;&gt;are_you_using_flux -->
<g id="edge5" class="edge"><title>steal_from_boilerplates&#45;&gt;are_you_using_flux</title>
<path fill="none" stroke="black" d="M473.454,-2681.92C456.612,-2655.14 438.89,-2626.96 424.378,-2603.89"/>
<polygon fill="black" stroke="black" points="427.269,-2601.91 418.982,-2595.31 421.343,-2605.64 427.269,-2601.91"/>
</g>
<!-- is_too_much_flux -->
<g id="node6" class="node"><title>is_too_much_flux</title>
<polygon fill="none" stroke="black" points="267,-2403 88,-2350 267,-2297 446,-2350 267,-2403"/>
<text text-anchor="middle" x="267" y="-2361.3" font-family="Times,serif" font-size="14.00">Не добавляет ли</text>
<text text-anchor="middle" x="267" y="-2346.3" font-family="Times,serif" font-size="14.00"> &#160;&#160;&#160;она множество шаблонов</text>
<text text-anchor="middle" x="267" y="-2331.3" font-family="Times,serif" font-size="14.00"> &#160;&#160;&#160;без видимой выгоды?</text>
</g>
<!-- are_you_using_flux&#45;&gt;is_too_much_flux -->
<g id="edge6" class="edge"><title>are_you_using_flux&#45;&gt;is_too_much_flux</title>
<path fill="none" stroke="black" d="M366.893,-2510.35C347.505,-2479.42 320.92,-2437.02 300.05,-2403.72"/>
<polygon fill="black" stroke="black" points="302.878,-2401.64 294.601,-2395.03 296.947,-2405.36 302.878,-2401.64"/>
<text text-anchor="middle" x="356" y="-2470.3" font-family="Times,serif" font-size="14.00">да</text>
</g>
<!-- is_not_enough_flux -->
<g id="node7" class="node"><title>is_not_enough_flux</title>
<polygon fill="none" stroke="black" points="736,-2448 464,-2350 736,-2252 1008,-2350 736,-2448"/>
<text text-anchor="middle" x="736" y="-2383.8" font-family="Times,serif" font-size="14.00">Есть ли у тебя</text>
<text text-anchor="middle" x="736" y="-2368.8" font-family="Times,serif" font-size="14.00"> &#160;&#160;&#160;несколько раздутых компонентов,</text>
<text text-anchor="middle" x="736" y="-2353.8" font-family="Times,serif" font-size="14.00"> &#160;&#160;&#160;содержащих состояние и расположенных</text>
<text text-anchor="middle" x="736" y="-2338.8" font-family="Times,serif" font-size="14.00"> &#160;&#160;&#160;на верхушке иерархии, которые</text>
<text text-anchor="middle" x="736" y="-2323.8" font-family="Times,serif" font-size="14.00"> &#160;&#160;&#160;зачастую являются источником</text>
<text text-anchor="middle" x="736" y="-2308.8" font-family="Times,serif" font-size="14.00"> &#160;&#160;&#160;ошибок?</text>
</g>
<!-- are_you_using_flux&#45;&gt;is_not_enough_flux -->
<g id="edge7" class="edge"><title>are_you_using_flux&#45;&gt;is_not_enough_flux</title>
<path fill="none" stroke="black" d="M445.094,-2521.47C492.519,-2493.68 564.127,-2451.72 624.429,-2416.38"/>
<polygon fill="black" stroke="black" points="626.381,-2419.29 633.239,-2411.22 622.842,-2413.25 626.381,-2419.29"/>
<text text-anchor="middle" x="544" y="-2470.3" font-family="Times,serif" font-size="14.00">нет</text>
</g>
<!-- remove_flux -->
<g id="node8" class="node"><title>remove_flux</title>
<polygon fill="none" stroke="black" points="449.25,-2192.5 184.75,-2192.5 184.75,-2109.5 449.25,-2109.5 449.25,-2192.5"/>
<text text-anchor="middle" x="317" y="-2177.3" font-family="Times,serif" font-size="14.00">Удали библиотеку Flux.</text>
<text text-anchor="middle" x="317" y="-2162.3" font-family="Times,serif" font-size="14.00"> &#160;&#160;&#160;Почувствуй кайф от структурирования</text>
<text text-anchor="middle" x="317" y="-2147.3" font-family="Times,serif" font-size="14.00"> &#160;&#160;&#160;приложений на чистом React, прочитав</text>
<text text-anchor="middle" x="317" y="-2132.3" font-family="Times,serif" font-size="14.00"> &#160;&#160;&#160;“Thinking in React” в официальной</text>
<text text-anchor="middle" x="317" y="-2117.3" font-family="Times,serif" font-size="14.00"> &#160;&#160;&#160;документации.</text>
</g>
<!-- is_too_much_flux&#45;&gt;remove_flux -->
<g id="edge8" class="edge"><title>is_too_much_flux&#45;&gt;remove_flux</title>
<path fill="none" stroke="black" d="M279.295,-2300.56C286.855,-2270.77 296.526,-2232.67 304.18,-2202.51"/>
<polygon fill="black" stroke="black" points="307.625,-2203.16 306.693,-2192.61 300.84,-2201.44 307.625,-2203.16"/>
<text text-anchor="middle" x="307" y="-2222.3" font-family="Times,serif" font-size="14.00">да</text>
</g>
<!-- are_you_using_bundler -->
<g id="node9" class="node"><title>are_you_using_bundler</title>
<polygon fill="none" stroke="black" points="520,-2064 290,-2011 520,-1958 750,-2011 520,-2064"/>
<text text-anchor="middle" x="520" y="-2022.3" font-family="Times,serif" font-size="14.00">Используешь ли ты</text>
<text text-anchor="middle" x="520" y="-2007.3" font-family="Times,serif" font-size="14.00"> &#160;&#160;&#160;JavaScript&#45;компоновщик</text>
<text text-anchor="middle" x="520" y="-1992.3" font-family="Times,serif" font-size="14.00"> &#160;&#160;&#160;(например, Webpack, Browserify)?</text>
</g>
<!-- is_too_much_flux&#45;&gt;are_you_using_bundler -->
<g id="edge9" class="edge"><title>is_too_much_flux&#45;&gt;are_you_using_bundler</title>
<path fill="none" stroke="black" d="M327.783,-2314.88C369.774,-2288.48 423.984,-2248.32 458,-2200 484.789,-2161.95 500.584,-2111.56 509.521,-2072.52"/>
<polygon fill="black" stroke="black" points="513.029,-2072.87 511.755,-2062.35 506.192,-2071.37 513.029,-2072.87"/>
<text text-anchor="middle" x="512" y="-2147.3" font-family="Times,serif" font-size="14.00">нет</text>
</g>
<!-- is_not_enough_flux&#45;&gt;are_you_using_bundler -->
<g id="edge11" class="edge"><title>is_not_enough_flux&#45;&gt;are_you_using_bundler</title>
<path fill="none" stroke="black" d="M639.722,-2286.54C610.027,-2262.79 579.931,-2233.33 560,-2200 537.125,-2161.75 527.231,-2112.24 522.999,-2073.63"/>
<polygon fill="black" stroke="black" points="526.47,-2073.16 521.996,-2063.55 519.505,-2073.85 526.47,-2073.16"/>
<text text-anchor="middle" x="570" y="-2147.3" font-family="Times,serif" font-size="14.00">нет</text>
</g>
<!-- add_flux -->
<g id="node10" class="node"><title>add_flux</title>
<polygon fill="none" stroke="black" points="839.25,-2200 588.75,-2200 588.75,-2102 839.25,-2102 839.25,-2200"/>
<text text-anchor="middle" x="714" y="-2184.8" font-family="Times,serif" font-size="14.00">Рассмотри вариант</text>
<text text-anchor="middle" x="714" y="-2169.8" font-family="Times,serif" font-size="14.00"> &#160;&#160;&#160;добавления библиотеки Flux.</text>
<text text-anchor="middle" x="714" y="-2154.8" font-family="Times,serif" font-size="14.00"> &#160;&#160;&#160;Она может помочь сформировать</text>
<text text-anchor="middle" x="714" y="-2139.8" font-family="Times,serif" font-size="14.00"> &#160;&#160;&#160;состояние, разделённое между</text>
<text text-anchor="middle" x="714" y="-2124.8" font-family="Times,serif" font-size="14.00"> &#160;&#160;&#160;многими компонентами, и обновлять</text>
<text text-anchor="middle" x="714" y="-2109.8" font-family="Times,serif" font-size="14.00"> &#160;&#160;&#160;его, когда это необходимо.</text>
</g>
<!-- is_not_enough_flux&#45;&gt;add_flux -->
<g id="edge10" class="edge"><title>is_not_enough_flux&#45;&gt;add_flux</title>
<path fill="none" stroke="black" d="M725.58,-2255.69C723.855,-2240.25 722.111,-2224.63 720.518,-2210.37"/>
<polygon fill="black" stroke="black" points="723.976,-2209.8 719.388,-2200.25 717.019,-2210.57 723.976,-2209.8"/>
<text text-anchor="middle" x="730" y="-2222.3" font-family="Times,serif" font-size="14.00">да</text>
</g>
<!-- remove_flux&#45;&gt;are_you_using_bundler -->
<g id="edge13" class="edge"><title>remove_flux&#45;&gt;are_you_using_bundler</title>
<path fill="none" stroke="black" d="M376.809,-2109.34C401.186,-2092.77 429.447,-2073.56 454.389,-2056.6"/>
<polygon fill="black" stroke="black" points="456.408,-2059.46 462.71,-2050.95 452.472,-2053.67 456.408,-2059.46"/>
</g>
<!-- are_you_working_on_production_app_with_bundler -->
<g id="node11" class="node"><title>are_you_working_on_production_app_with_bundler</title>
<polygon fill="none" stroke="black" points="412,-1906 222,-1868 412,-1830 602,-1868 412,-1906"/>
<text text-anchor="middle" x="412" y="-1871.8" font-family="Times,serif" font-size="14.00">Ты работаешь над</text>
<text text-anchor="middle" x="412" y="-1856.8" font-family="Times,serif" font-size="14.00"> &#160;&#160;&#160;приложением в production?</text>
</g>
<!-- are_you_using_bundler&#45;&gt;are_you_working_on_production_app_with_bundler -->
<g id="edge14" class="edge"><title>are_you_using_bundler&#45;&gt;are_you_working_on_production_app_with_bundler</title>
<path fill="none" stroke="black" d="M486.124,-1965.77C472.409,-1947.87 456.672,-1927.32 443.236,-1909.78"/>
<polygon fill="black" stroke="black" points="445.703,-1907.25 436.844,-1901.44 440.146,-1911.5 445.703,-1907.25"/>
<text text-anchor="middle" x="473" y="-1928.3" font-family="Times,serif" font-size="14.00">да</text>
</g>
<!-- are_you_working_on_production_app_without_bundler -->
<g id="node12" class="node"><title>are_you_working_on_production_app_without_bundler</title>
<polygon fill="none" stroke="black" points="810,-1906 620,-1868 810,-1830 1000,-1868 810,-1906"/>
<text text-anchor="middle" x="810" y="-1871.8" font-family="Times,serif" font-size="14.00">Ты работаешь над</text>
<text text-anchor="middle" x="810" y="-1856.8" font-family="Times,serif" font-size="14.00"> &#160;&#160;&#160;приложением в production?</text>
</g>
<!-- are_you_using_bundler&#45;&gt;are_you_working_on_production_app_without_bundler -->
<g id="edge15" class="edge"><title>are_you_using_bundler&#45;&gt;are_you_working_on_production_app_without_bundler</title>
<path fill="none" stroke="black" d="M592.805,-1974.6C640.209,-1951.55 701.434,-1921.79 746.791,-1899.73"/>
<polygon fill="black" stroke="black" points="748.467,-1902.81 755.93,-1895.29 745.406,-1896.51 748.467,-1902.81"/>
<text text-anchor="middle" x="700" y="-1928.3" font-family="Times,serif" font-size="14.00">нет</text>
</g>
<!-- add_flux&#45;&gt;are_you_using_bundler -->
<g id="edge12" class="edge"><title>add_flux&#45;&gt;are_you_using_bundler</title>
<path fill="none" stroke="black" d="M646.421,-2101.93C626.045,-2087.43 603.757,-2071.58 583.646,-2057.27"/>
<polygon fill="black" stroke="black" points="585.646,-2054.4 575.469,-2051.46 581.589,-2060.11 585.646,-2054.4"/>
</g>
<!-- do_you_know_es2015 -->
<g id="node13" class="node"><title>do_you_know_es2015</title>
<polygon fill="none" stroke="black" points="636,-1596 399,-1543 636,-1490 873,-1543 636,-1596"/>
<text text-anchor="middle" x="636" y="-1554.3" font-family="Times,serif" font-size="14.00">Тебе удобно</text>
<text text-anchor="middle" x="636" y="-1539.3" font-family="Times,serif" font-size="14.00"> &#160;&#160;&#160;использовать возможности ES2015</text>
<text text-anchor="middle" x="636" y="-1524.3" font-family="Times,serif" font-size="14.00"> &#160;&#160;&#160;(к примеру, классы и =&gt; стрелки)?</text>
</g>
<!-- are_you_working_on_production_app_with_bundler&#45;&gt;do_you_know_es2015 -->
<g id="edge16" class="edge"><title>are_you_working_on_production_app_with_bundler&#45;&gt;do_you_know_es2015</title>
<path fill="none" stroke="black" d="M387.496,-1834.65C376.803,-1818.54 365.471,-1798.21 360,-1778 343.276,-1716.22 322.409,-1685.8 360,-1634 385.747,-1598.52 425.857,-1576.76 467.599,-1563.5"/>
<polygon fill="black" stroke="black" points="468.813,-1566.79 477.377,-1560.55 466.792,-1560.08 468.813,-1566.79"/>
<text text-anchor="middle" x="367" y="-1702.3" font-family="Times,serif" font-size="14.00">да</text>
</g>
<!-- remove_bundler -->
<g id="node14" class="node"><title>remove_bundler</title>
<polygon fill="none" stroke="black" points="649,-1777.5 383,-1777.5 383,-1634.5 649,-1634.5 649,-1777.5"/>
<text text-anchor="middle" x="516" y="-1762.3" font-family="Times,serif" font-size="14.00">Тебе не обязательно нужен</text>
<text text-anchor="middle" x="516" y="-1747.3" font-family="Times,serif" font-size="14.00"> &#160;&#160;&#160;компоновщик, если ты ещё новичок</text>
<text text-anchor="middle" x="516" y="-1732.3" font-family="Times,serif" font-size="14.00"> &#160;&#160;&#160;в React. Скопируй</text>
<text text-anchor="middle" x="516" y="-1717.3" font-family="Times,serif" font-size="14.00"> &#160;&#160;&#160;https://github.com/jarsbe/react&#45;simple</text>
<text text-anchor="middle" x="516" y="-1702.3" font-family="Times,serif" font-size="14.00"> &#160;&#160;&#160;и начни кодить безо всяких сборок</text>
<text text-anchor="middle" x="516" y="-1687.3" font-family="Times,serif" font-size="14.00"> &#160;&#160;&#160;Используй теги &lt;script&gt;, пока не</text>
<text text-anchor="middle" x="516" y="-1672.3" font-family="Times,serif" font-size="14.00"> &#160;&#160;&#160;почувствуешь себя увереннее с React и</text>
<text text-anchor="middle" x="516" y="-1657.3" font-family="Times,serif" font-size="14.00"> &#160;&#160;&#160;не захочешь узнать больше о модульной</text>
<text text-anchor="middle" x="516" y="-1642.3" font-family="Times,serif" font-size="14.00"> &#160;&#160;&#160;системе и различных компоновщиках.</text>
</g>
<!-- are_you_working_on_production_app_with_bundler&#45;&gt;remove_bundler -->
<g id="edge17" class="edge"><title>are_you_working_on_production_app_with_bundler&#45;&gt;remove_bundler</title>
<path fill="none" stroke="black" d="M433.297,-1834.24C442.355,-1820.3 453.35,-1803.38 464.326,-1786.5"/>
<polygon fill="black" stroke="black" points="467.538,-1787.98 470.054,-1777.69 461.669,-1784.16 467.538,-1787.98"/>
<text text-anchor="middle" x="468" y="-1800.3" font-family="Times,serif" font-size="14.00">нет</text>
</g>
<!-- are_you_working_on_production_app_without_bundler&#45;&gt;do_you_know_es2015 -->
<g id="edge19" class="edge"><title>are_you_working_on_production_app_without_bundler&#45;&gt;do_you_know_es2015</title>
<path fill="none" stroke="black" d="M760.402,-1839.72C736.994,-1824.46 710.615,-1803.38 694,-1778 693.385,-1777.06 667.545,-1672.29 650.567,-1603.27"/>
<polygon fill="black" stroke="black" points="653.917,-1602.24 648.13,-1593.36 647.12,-1603.91 653.917,-1602.24"/>
<text text-anchor="middle" x="704" y="-1702.3" font-family="Times,serif" font-size="14.00">нет</text>
</g>
<!-- add_bundler -->
<g id="node15" class="node"><title>add_bundler</title>
<polygon fill="none" stroke="black" points="1019,-1770 723,-1770 723,-1642 1019,-1642 1019,-1770"/>
<text text-anchor="middle" x="871" y="-1754.8" font-family="Times,serif" font-size="14.00">Добавь компоновщик как</text>
<text text-anchor="middle" x="871" y="-1739.8" font-family="Times,serif" font-size="14.00"> &#160;&#160;&#160;шаг сборки приложения, чтобы</text>
<text text-anchor="middle" x="871" y="-1724.8" font-family="Times,serif" font-size="14.00"> &#160;&#160;&#160;зависимости стали более управляемыми,</text>
<text text-anchor="middle" x="871" y="-1709.8" font-family="Times,serif" font-size="14.00"> &#160;&#160;&#160;а обслуживание JS&#45;кода — эффективнее.</text>
<text text-anchor="middle" x="871" y="-1694.8" font-family="Times,serif" font-size="14.00"> &#160;&#160;&#160;Используй инстумент PageSpeed Insights</text>
<text text-anchor="middle" x="871" y="-1679.8" font-family="Times,serif" font-size="14.00"> &#160;&#160;&#160;от Google, чтобы оценить, насколько хорошо</text>
<text text-anchor="middle" x="871" y="-1664.8" font-family="Times,serif" font-size="14.00"> &#160;&#160;&#160;у тебя идут дела. Не забывай также про</text>
<text text-anchor="middle" x="871" y="-1649.8" font-family="Times,serif" font-size="14.00"> &#160;&#160;&#160;minify и envify для твоего кода.</text>
</g>
<!-- are_you_working_on_production_app_without_bundler&#45;&gt;add_bundler -->
<g id="edge18" class="edge"><title>are_you_working_on_production_app_without_bundler&#45;&gt;add_bundler</title>
<path fill="none" stroke="black" d="M823.236,-1832.28C829.144,-1816.79 836.341,-1797.91 843.337,-1779.56"/>
<polygon fill="black" stroke="black" points="846.677,-1780.62 846.969,-1770.03 840.136,-1778.13 846.677,-1780.62"/>
<text text-anchor="middle" x="843" y="-1800.3" font-family="Times,serif" font-size="14.00">да</text>
</g>
<!-- use_es5 -->
<g id="node16" class="node"><title>use_es5</title>
<polygon fill="none" stroke="black" points="761.25,-1284 468.75,-1284 468.75,-1096 761.25,-1096 761.25,-1284"/>
<text text-anchor="middle" x="615" y="-1268.8" font-family="Times,serif" font-size="14.00">Пока не используй ES2015.</text>
<text text-anchor="middle" x="615" y="-1253.8" font-family="Times,serif" font-size="14.00"> &#160;&#160;&#160;Он не нужен тебе для изучения React.</text>
<text text-anchor="middle" x="615" y="-1238.8" font-family="Times,serif" font-size="14.00"> &#160;&#160;&#160;Сторонние библиотеки часто используют</text>
<text text-anchor="middle" x="615" y="-1223.8" font-family="Times,serif" font-size="14.00"> &#160;&#160;&#160;синтаксис ES2015 в своей документации, но</text>
<text text-anchor="middle" x="615" y="-1208.8" font-family="Times,serif" font-size="14.00"> &#160;&#160;&#160;тебе ведь не нужны эти библиотеки для</text>
<text text-anchor="middle" x="615" y="-1193.8" font-family="Times,serif" font-size="14.00"> &#160;&#160;&#160;изучения самого React, не так ли?</text>
<text text-anchor="middle" x="615" y="-1178.8" font-family="Times,serif" font-size="14.00"> &#160;&#160;&#160;Когда почувствуешь, что твои знания</text>
<text text-anchor="middle" x="615" y="-1163.8" font-family="Times,serif" font-size="14.00"> &#160;&#160;&#160;JavaScript заметно улучшились, то</text>
<text text-anchor="middle" x="615" y="-1148.8" font-family="Times,serif" font-size="14.00"> &#160;&#160;&#160;https://leanpub.com/understandinges6/read</text>
<text text-anchor="middle" x="615" y="-1133.8" font-family="Times,serif" font-size="14.00"> &#160;&#160;&#160;станет для тебя отличным пособием.</text>
<text text-anchor="middle" x="615" y="-1118.8" font-family="Times,serif" font-size="14.00"> &#160;&#160;&#160;Используй http://babeljs.io/repl,</text>
<text text-anchor="middle" x="615" y="-1103.8" font-family="Times,serif" font-size="14.00"> &#160;&#160;&#160;чтобы проверить себя.</text>
</g>
<!-- do_you_know_es2015&#45;&gt;use_es5 -->
<g id="edge22" class="edge"><title>do_you_know_es2015&#45;&gt;use_es5</title>
<path fill="none" stroke="black" d="M632.924,-1490.59C629.853,-1439.25 625.047,-1358.92 621.184,-1294.36"/>
<polygon fill="black" stroke="black" points="624.664,-1293.92 620.573,-1284.14 617.676,-1294.33 624.664,-1293.92"/>
<text text-anchor="middle" x="641" y="-1460.3" font-family="Times,serif" font-size="14.00">нет</text>
</g>
<!-- are_you_using_dangerous_features -->
<g id="node17" class="node"><title>are_you_using_dangerous_features</title>
<polygon fill="none" stroke="black" points="871,-1438 643,-1370 871,-1302 1099,-1370 871,-1438"/>
<text text-anchor="middle" x="871" y="-1388.8" font-family="Times,serif" font-size="14.00">Используешь ли ты</text>
<text text-anchor="middle" x="871" y="-1373.8" font-family="Times,serif" font-size="14.00"> &#160;&#160;&#160;экспериментальные возможности</text>
<text text-anchor="middle" x="871" y="-1358.8" font-family="Times,serif" font-size="14.00"> &#160;&#160;&#160;языка, не попавшие в ES2015</text>
<text text-anchor="middle" x="871" y="-1343.8" font-family="Times,serif" font-size="14.00"> &#160;&#160;&#160;(например, декораторы)?</text>
</g>
<!-- do_you_know_es2015&#45;&gt;are_you_using_dangerous_features -->
<g id="edge23" class="edge"><title>do_you_know_es2015&#45;&gt;are_you_using_dangerous_features</title>
<path fill="none" stroke="black" d="M690.8,-1502.12C722.567,-1479.01 762.981,-1449.6 797.482,-1424.5"/>
<polygon fill="black" stroke="black" points="799.632,-1427.26 805.658,-1418.55 795.513,-1421.6 799.632,-1427.26"/>
<text text-anchor="middle" x="760" y="-1460.3" font-family="Times,serif" font-size="14.00">да</text>
</g>
<!-- remove_bundler&#45;&gt;do_you_know_es2015 -->
<g id="edge21" class="edge"><title>remove_bundler&#45;&gt;do_you_know_es2015</title>
<path fill="none" stroke="black" d="M568.634,-1634.38C578.048,-1621.75 587.709,-1608.79 596.668,-1596.77"/>
<polygon fill="black" stroke="black" points="599.578,-1598.72 602.748,-1588.61 593.965,-1594.54 599.578,-1598.72"/>
</g>
<!-- add_bundler&#45;&gt;do_you_know_es2015 -->
<g id="edge20" class="edge"><title>add_bundler&#45;&gt;do_you_know_es2015</title>
<path fill="none" stroke="black" d="M778.796,-1641.83C753.031,-1624.18 725.561,-1605.36 701.668,-1588.99"/>
<polygon fill="black" stroke="black" points="703.603,-1586.07 693.375,-1583.31 699.646,-1591.85 703.603,-1586.07"/>
</g>
<!-- do_you_update_packages_asap -->
<g id="node18" class="node"><title>do_you_update_packages_asap</title>
<polygon fill="none" stroke="black" points="814,-768 605,-700 814,-632 1023,-700 814,-768"/>
<text text-anchor="middle" x="814" y="-718.8" font-family="Times,serif" font-size="14.00">Ты обновляешься до</text>
<text text-anchor="middle" x="814" y="-703.8" font-family="Times,serif" font-size="14.00"> &#160;&#160;&#160;новых мажорных версий</text>
<text text-anchor="middle" x="814" y="-688.8" font-family="Times,serif" font-size="14.00"> &#160;&#160;&#160;своих зависимостей в момент</text>
<text text-anchor="middle" x="814" y="-673.8" font-family="Times,serif" font-size="14.00"> &#160;&#160;&#160;их выхода?</text>
</g>
<!-- use_es5&#45;&gt;do_you_update_packages_asap -->
<g id="edge24" class="edge"><title>use_es5&#45;&gt;do_you_update_packages_asap</title>
<path fill="none" stroke="black" d="M643.697,-1095.74C670.536,-1012.73 713.79,-888.873 763,-786 766.165,-779.383 769.691,-772.612 773.368,-765.924"/>
<polygon fill="black" stroke="black" points="776.606,-767.307 778.458,-756.875 770.505,-763.875 776.606,-767.307"/>
</g>
<!-- are_you_using_dangerous_features&#45;&gt;do_you_update_packages_asap -->
<g id="edge26" class="edge"><title>are_you_using_dangerous_features&#45;&gt;do_you_update_packages_asap</title>
<path fill="none" stroke="black" d="M850.472,-1308C832.013,-1249.72 806.27,-1159 796,-1078 786.72,-1004.81 792.862,-985.711 796,-912 797.925,-866.794 802.159,-816.288 806.037,-776.025"/>
<polygon fill="black" stroke="black" points="809.526,-776.312 807.014,-766.019 802.559,-775.632 809.526,-776.312"/>
<text text-anchor="middle" x="807" y="-882.3" font-family="Times,serif" font-size="14.00">нет</text>
</g>
<!-- can_you_spend_days_on_your_tooling -->
<g id="node19" class="node"><title>can_you_spend_days_on_your_tooling</title>
<polygon fill="none" stroke="black" points="1072,-1078 805,-995 1072,-912 1339,-995 1072,-1078"/>
<text text-anchor="middle" x="1072" y="-1021.3" font-family="Times,serif" font-size="14.00">Можешь ли ты тратить</text>
<text text-anchor="middle" x="1072" y="-1006.3" font-family="Times,serif" font-size="14.00"> &#160;&#160;&#160;целые дни на исправление выбранных</text>
<text text-anchor="middle" x="1072" y="-991.3" font-family="Times,serif" font-size="14.00"> &#160;&#160;&#160;инструментов каждые несколько недель</text>
<text text-anchor="middle" x="1072" y="-976.3" font-family="Times,serif" font-size="14.00"> &#160;&#160;&#160;из&#45;за багов, несовместимостей и</text>
<text text-anchor="middle" x="1072" y="-961.3" font-family="Times,serif" font-size="14.00"> &#160;&#160;&#160;изменений стандарта?</text>
</g>
<!-- are_you_using_dangerous_features&#45;&gt;can_you_spend_days_on_your_tooling -->
<g id="edge25" class="edge"><title>are_you_using_dangerous_features&#45;&gt;can_you_spend_days_on_your_tooling</title>
<path fill="none" stroke="black" d="M902.186,-1311.13C936.289,-1247.84 991.153,-1146.03 1029.25,-1075.33"/>
<polygon fill="black" stroke="black" points="1032.38,-1076.89 1034.05,-1066.43 1026.22,-1073.57 1032.38,-1076.89"/>
<text text-anchor="middle" x="1025" y="-1186.3" font-family="Times,serif" font-size="14.00">да</text>
</g>
<!-- give_it_two_months -->
<g id="node21" class="node"><title>give_it_two_months</title>
<polygon fill="none" stroke="black" points="887.25,-580 558.75,-580 558.75,-392 887.25,-392 887.25,-580"/>
<text text-anchor="middle" x="723" y="-564.8" font-family="Times,serif" font-size="14.00">Не считая React, который</text>
<text text-anchor="middle" x="723" y="-549.8" font-family="Times,serif" font-size="14.00"> &#160;&#160;&#160;тщательно тестируется перед каждым релизом,</text>
<text text-anchor="middle" x="723" y="-534.8" font-family="Times,serif" font-size="14.00"> &#160;&#160;&#160;постарайся обновлять остальные пакеты не</text>
<text text-anchor="middle" x="723" y="-519.8" font-family="Times,serif" font-size="14.00"> &#160;&#160;&#160;слишком часто. Ты можешь пробовать новые</text>
<text text-anchor="middle" x="723" y="-504.8" font-family="Times,serif" font-size="14.00"> &#160;&#160;&#160;версии зависимостей, но будет лучше делать</text>
<text text-anchor="middle" x="723" y="-489.8" font-family="Times,serif" font-size="14.00"> &#160;&#160;&#160;это в специальной ветке хотя бы пару месяцев,</text>
<text text-anchor="middle" x="723" y="-474.8" font-family="Times,serif" font-size="14.00"> &#160;&#160;&#160;пока сообщество не найдет и не решит все</text>
<text text-anchor="middle" x="723" y="-459.8" font-family="Times,serif" font-size="14.00"> &#160;&#160;&#160;наиболее распространенные ошибки. Не принимай</text>
<text text-anchor="middle" x="723" y="-444.8" font-family="Times,serif" font-size="14.00"> &#160;&#160;&#160;решений, основанных на страхе что&#45;то упустить!</text>
<text text-anchor="middle" x="723" y="-429.8" font-family="Times,serif" font-size="14.00"> &#160;&#160;&#160;При поиске старой документации не забудь</text>
<text text-anchor="middle" x="723" y="-414.8" font-family="Times,serif" font-size="14.00"> &#160;&#160;&#160;проверить релиз с тегом на GitHub, к примеру,</text>
<text text-anchor="middle" x="723" y="-399.8" font-family="Times,serif" font-size="14.00"> &#160;&#160;&#160;https://github.com/reactjs/react&#45;router/tree/0.13.x/doc</text>
</g>
<!-- do_you_update_packages_asap&#45;&gt;give_it_two_months -->
<g id="edge30" class="edge"><title>do_you_update_packages_asap&#45;&gt;give_it_two_months</title>
<path fill="none" stroke="black" d="M788.651,-639.946C781.951,-624.337 774.52,-607.025 767.137,-589.825"/>
<polygon fill="black" stroke="black" points="770.206,-588.101 763.045,-580.292 763.774,-590.862 770.206,-588.101"/>
<text text-anchor="middle" x="783" y="-602.3" font-family="Times,serif" font-size="14.00">да</text>
</g>
<!-- consider_updating_react -->
<g id="node22" class="node"><title>consider_updating_react</title>
<polygon fill="none" stroke="black" points="1200.25,-565 905.75,-565 905.75,-407 1200.25,-407 1200.25,-565"/>
<text text-anchor="middle" x="1053" y="-549.8" font-family="Times,serif" font-size="14.00">Это верный шаг.</text>
<text text-anchor="middle" x="1053" y="-534.8" font-family="Times,serif" font-size="14.00"> &#160;&#160;&#160;Тем не менее, мы рекомендуем тебе</text>
<text text-anchor="middle" x="1053" y="-519.8" font-family="Times,serif" font-size="14.00"> &#160;&#160;&#160;пробовать (в ветке!) новые версии</text>
<text text-anchor="middle" x="1053" y="-504.8" font-family="Times,serif" font-size="14.00"> &#160;&#160;&#160;React по мере их выхода. В отличие от</text>
<text text-anchor="middle" x="1053" y="-489.8" font-family="Times,serif" font-size="14.00"> &#160;&#160;&#160;многих других пакетов, разрабатываемых</text>
<text text-anchor="middle" x="1053" y="-474.8" font-family="Times,serif" font-size="14.00"> &#160;&#160;&#160;сообществами, React тщательно тестируется</text>
<text text-anchor="middle" x="1053" y="-459.8" font-family="Times,serif" font-size="14.00"> &#160;&#160;&#160;в Facebook.</text>
<text text-anchor="middle" x="1053" y="-444.8" font-family="Times,serif" font-size="14.00"> &#160;&#160;&#160;Следи за примечаниями к релизу, ведь они</text>
<text text-anchor="middle" x="1053" y="-429.8" font-family="Times,serif" font-size="14.00"> &#160;&#160;&#160;ссылаются на отрывки кода, которыt</text>
<text text-anchor="middle" x="1053" y="-414.8" font-family="Times,serif" font-size="14.00"> &#160;&#160;&#160;автоматизируют часть миграции за тебя.</text>
</g>
<!-- do_you_update_packages_asap&#45;&gt;consider_updating_react -->
<g id="edge31" class="edge"><title>do_you_update_packages_asap&#45;&gt;consider_updating_react</title>
<path fill="none" stroke="black" d="M869.432,-649.83C895.492,-626.714 927.324,-598.478 957.116,-572.052"/>
<polygon fill="black" stroke="black" points="959.483,-574.631 964.642,-565.376 954.838,-569.394 959.483,-574.631"/>
<text text-anchor="middle" x="936" y="-602.3" font-family="Times,serif" font-size="14.00">нет</text>
</g>
<!-- can_you_spend_days_on_your_tooling&#45;&gt;do_you_update_packages_asap -->
<g id="edge27" class="edge"><title>can_you_spend_days_on_your_tooling&#45;&gt;do_you_update_packages_asap</title>
<path fill="none" stroke="black" d="M972.948,-942.603C938.586,-920.876 902.157,-892.917 876,-860 855.879,-834.678 841.644,-802.042 831.935,-772.932"/>
<polygon fill="black" stroke="black" points="835.203,-771.662 828.813,-763.211 828.538,-773.802 835.203,-771.662"/>
<text text-anchor="middle" x="883" y="-829.3" font-family="Times,serif" font-size="14.00">да</text>
</g>
<!-- stick_to_es2015 -->
<g id="node20" class="node"><title>stick_to_es2015</title>
<polygon fill="none" stroke="black" points="1099,-859.5 899,-859.5 899,-806.5 1099,-806.5 1099,-859.5"/>
<text text-anchor="middle" x="999" y="-844.3" font-family="Times,serif" font-size="14.00">Придерживайся использования</text>
<text text-anchor="middle" x="999" y="-829.3" font-family="Times,serif" font-size="14.00"> &#160;&#160;&#160;в основном ES2015, JSX и</text>
<text text-anchor="middle" x="999" y="-814.3" font-family="Times,serif" font-size="14.00"> &#160;&#160;&#160;оператора распространения.</text>
</g>
<!-- can_you_spend_days_on_your_tooling&#45;&gt;stick_to_es2015 -->
<g id="edge28" class="edge"><title>can_you_spend_days_on_your_tooling&#45;&gt;stick_to_es2015</title>
<path fill="none" stroke="black" d="M1039.13,-921.957C1030.73,-903.548 1022.07,-884.572 1014.96,-868.979"/>
<polygon fill="black" stroke="black" points="1018.08,-867.388 1010.75,-859.743 1011.71,-870.294 1018.08,-867.388"/>
<text text-anchor="middle" x="1034" y="-882.3" font-family="Times,serif" font-size="14.00">нет</text>
</g>
<!-- stick_to_es2015&#45;&gt;do_you_update_packages_asap -->
<g id="edge29" class="edge"><title>stick_to_es2015&#45;&gt;do_you_update_packages_asap</title>
<path fill="none" stroke="black" d="M962.891,-806.431C941.352,-791.179 913.217,-771.256 887.211,-752.841"/>
<polygon fill="black" stroke="black" points="889.037,-749.846 878.853,-746.923 884.992,-755.558 889.037,-749.846"/>
</g>
<!-- are_you_still_sad -->
<g id="node23" class="node"><title>are_you_still_sad</title>
<polygon fill="none" stroke="black" points="925,-354 790.704,-336 925,-318 1059.3,-336 925,-354"/>
<text text-anchor="middle" x="925" y="-332.3" font-family="Times,serif" font-size="14.00">Ты всё ещё грустишь?</text>
</g>
<!-- give_it_two_months&#45;&gt;are_you_still_sad -->
<g id="edge32" class="edge"><title>give_it_two_months&#45;&gt;are_you_still_sad</title>
<path fill="none" stroke="black" d="M850.07,-391.899C867.534,-379.104 883.883,-367.126 896.824,-357.644"/>
<polygon fill="black" stroke="black" points="899.214,-360.232 905.212,-351.498 895.076,-354.585 899.214,-360.232"/>
</g>
<!-- consider_updating_react&#45;&gt;are_you_still_sad -->
<g id="edge33" class="edge"><title>consider_updating_react&#45;&gt;are_you_still_sad</title>
<path fill="none" stroke="black" d="M985.252,-406.666C970.494,-389.603 956.004,-372.848 944.932,-360.047"/>
<polygon fill="black" stroke="black" points="947.371,-357.516 938.183,-352.242 942.077,-362.095 947.371,-357.516"/>
</g>
<!-- rant -->
<g id="node24" class="node"><title>rant</title>
<polygon fill="none" stroke="black" points="939.25,-265.5 612.75,-265.5 612.75,-152.5 939.25,-152.5 939.25,-265.5"/>
<text text-anchor="middle" x="776" y="-250.3" font-family="Times,serif" font-size="14.00">Напиши конструктивную статью</text>
<text text-anchor="middle" x="776" y="-235.3" font-family="Times,serif" font-size="14.00"> &#160;&#160;&#160;в своём блоге о тех проблемах, с</text>
<text text-anchor="middle" x="776" y="-220.3" font-family="Times,serif" font-size="14.00"> &#160;&#160;&#160;которыми столкнулся. Воздержишь от</text>
<text text-anchor="middle" x="776" y="-205.3" font-family="Times,serif" font-size="14.00"> &#160;&#160;&#160;нападок на личности. Будь вежлив.</text>
<text text-anchor="middle" x="776" y="-190.3" font-family="Times,serif" font-size="14.00"> &#160;&#160;&#160;Помоги сообществу найти решение</text>
<text text-anchor="middle" x="776" y="-175.3" font-family="Times,serif" font-size="14.00"> &#160;&#160;&#160;проблемы. Рассмотри другой стек технологий,</text>
<text text-anchor="middle" x="776" y="-160.3" font-family="Times,serif" font-size="14.00"> &#160;&#160;&#160;которые лучше тебе подойдут (например, Ember).</text>
</g>
<!-- are_you_still_sad&#45;&gt;rant -->
<g id="edge34" class="edge"><title>are_you_still_sad&#45;&gt;rant</title>
<path fill="none" stroke="black" d="M907.323,-320.17C892.905,-308.075 871.497,-290.115 850.129,-272.189"/>
<polygon fill="black" stroke="black" points="852.183,-269.343 842.272,-265.597 847.684,-274.706 852.183,-269.343"/>
<text text-anchor="middle" x="887" y="-288.3" font-family="Times,serif" font-size="14.00">да</text>
</g>
<!-- happy -->
<g id="node25" class="node"><title>happy</title>
<polygon fill="none" stroke="black" points="1085,-114 753,-114 753,-76 1085,-76 1085,-114"/>
<text text-anchor="middle" x="919" y="-98.8" font-family="Times,serif" font-size="14.00">React делает тебя счастливым!</text>
<text text-anchor="middle" x="919" y="-83.8" font-family="Times,serif" font-size="14.00"> &#160;&#160;&#160;Или, по крайней мере, он больше тебя не огорчает.</text>
</g>
<!-- are_you_still_sad&#45;&gt;happy -->
<g id="edge35" class="edge"><title>are_you_still_sad&#45;&gt;happy</title>
<path fill="none" stroke="black" d="M932.004,-318.923C937.591,-305.172 944.966,-284.696 948,-266 956.116,-215.988 959.99,-201.227 948,-152 945.558,-141.973 940.983,-131.738 936.176,-122.808"/>
<polygon fill="black" stroke="black" points="939.164,-120.982 931.163,-114.037 933.087,-124.456 939.164,-120.982"/>
<text text-anchor="middle" x="965" y="-205.3" font-family="Times,serif" font-size="14.00">нет</text>
</g>
<!-- rant&#45;&gt;happy -->
<g id="edge36" class="edge"><title>rant&#45;&gt;happy</title>
<path fill="none" stroke="black" d="M847.081,-152.328C861.433,-141.087 875.808,-129.829 887.892,-120.364"/>
<polygon fill="black" stroke="black" points="890.149,-123.043 895.863,-114.121 885.832,-117.532 890.149,-123.043"/>
</g>
<!-- share -->
<g id="node26" class="node"><title>share</title>
<path fill="none" stroke="black" d="M1108,-38C1108,-38 730,-38 730,-38 724,-38 718,-32 718,-26 718,-26 718,-12 718,-12 718,-6 724,-0 730,-0 730,-0 1108,-0 1108,-0 1114,-0 1120,-6 1120,-12 1120,-12 1120,-26 1120,-26 1120,-32 1114,-38 1108,-38"/>
<text text-anchor="middle" x="919" y="-22.8" font-family="Times,serif" font-size="14.00">Поделись этой блок&#45;схемой: http://bit.ly/react&#45;makes&#45;you&#45;sad.</text>
<text text-anchor="middle" x="919" y="-7.8" font-family="Times,serif" font-size="14.00"> &#160;&#160;&#160;Основано и вдохновлено https://github.com/petehunt/react&#45;howto.</text>
</g>
<!-- happy&#45;&gt;share -->
<g id="edge37" class="edge"><title>happy&#45;&gt;share</title>
<path fill="none" stroke="black" d="M919,-75.7079C919,-67.4635 919,-57.5376 919,-48.3622"/>
<polygon fill="black" stroke="black" points="922.5,-48.0817 919,-38.0817 915.5,-48.0818 922.5,-48.0817"/>
</g>
</g>
</svg>
